<svg xmlns="http://www.w3.org/2000/svg" width="867" height="952" viewBox="0 0 867 952" version="1.1">
	<path d="M 214 26.492 C 177.144 33.887, 147.097 61.749, 134.081 100.600 C 119.556 143.952, 128.889 200.665, 157.618 243.639 C 174.702 269.194, 201.131 293.313, 225.895 305.946 L 230 308.041 225.471 317.058 C 206.617 354.598, 194.004 401.569, 189.038 452.729 C 186.803 475.764, 186.378 513.609, 187.057 629.500 C 187.647 730.377, 188.009 750.916, 189.430 764.364 C 190.351 773.089, 190.861 780.472, 190.563 780.770 C 189.536 781.797, 170.496 761.493, 167.179 755.835 C 159.711 743.093, 156.038 726.137, 157.882 712.914 C 158.451 708.836, 160.377 701, 162.163 695.500 C 165.072 686.544, 165.415 684.247, 165.455 673.500 C 165.499 661.720, 165.433 661.360, 161.861 653.881 C 157.512 644.772, 149.944 636.848, 141.089 632.128 C 117.368 619.485, 84.218 627.439, 60.503 651.465 C 38.041 674.220, 25.811 706.537, 25.673 743.500 C 25.569 771.355, 31.977 797.539, 45.129 823 C 53.229 838.681, 62.431 851.238, 75.500 864.444 C 106.777 896.049, 146.881 915.026, 198 922.411 C 226.606 926.544, 224.167 926.500, 427 926.500 C 633.086 926.500, 630.946 926.542, 660 921.925 C 771.081 904.273, 841.859 830.328, 841.982 731.801 C 842.062 667.245, 811.747 601.342, 763.500 561.188 C 758.550 557.069, 754.388 553.429, 754.252 553.099 C 754.116 552.770, 756.116 551.166, 758.697 549.534 C 767.112 544.218, 779.953 532.970, 787.621 524.199 C 805.436 503.822, 817.348 479.738, 822.702 453.270 C 825.405 439.911, 825.140 410.954, 822.190 397.312 C 812.462 352.320, 784.384 315.259, 743.999 294.106 C 738.773 291.369, 733.148 287.701, 731.499 285.955 C 722.662 276.600, 699.408 257.944, 686.261 249.659 L 682.021 246.988 686.668 240.244 C 693.212 230.746, 699.422 217.200, 702.595 205.500 C 705.002 196.624, 705.318 193.645, 705.400 179 C 705.501 160.974, 703.989 152.552, 698.019 137.882 C 674.590 80.310, 598.686 57.368, 534 88.306 C 510.767 99.418, 488.771 120.716, 477.514 143 C 472.562 152.802, 467.893 166.605, 464.614 181.134 L 464.020 183.769 433.760 184.271 C 409.818 184.669, 400.682 185.214, 390 186.882 C 382.575 188.042, 376.183 188.993, 375.795 188.995 C 375.408 188.998, 374.807 187.312, 374.461 185.250 C 373.036 176.764, 365.767 148.494, 362.903 140.297 C 356.472 121.891, 346.769 101.987, 337.186 87.542 C 314.944 54.015, 282.796 31.392, 249.786 26.035 C 241.255 24.651, 221.948 24.897, 214 26.492 M 217 58.571 C 191.525 65.238, 170.877 87.524, 162.804 117.067 C 160.753 124.574, 160.502 127.695, 160.516 145.500 C 160.531 163.814, 160.756 166.386, 163.189 176.010 C 170.436 204.676, 182.422 226.731, 201.875 247.189 C 214.536 260.505, 229.142 271.294, 246.451 280.115 C 261.833 287.954, 263.479 289.091, 265.721 293.427 C 268.852 299.483, 267.896 304.566, 261.283 317.024 C 242.982 351.498, 231.518 386.765, 224.543 430.042 L 224.133 432.585 239.817 433.782 C 248.442 434.440, 259.775 435.888, 265 437 C 277.910 439.746, 293.298 444.601, 295.876 446.741 C 301.392 451.321, 298.313 460.007, 291.177 459.993 C 289.155 459.989, 284.308 458.902, 280.406 457.578 C 266.632 452.903, 250.240 449.840, 235.904 449.263 L 222.309 448.715 221.684 454.108 C 221.340 457.073, 220.748 465.763, 220.369 473.419 C 219.785 485.199, 219.896 487.245, 221.089 486.737 C 230.279 482.824, 240.500 479.329, 249.705 476.952 C 261.775 473.835, 285.172 471.247, 291.150 472.368 C 295.830 473.246, 298.400 476.192, 298.400 480.679 C 298.400 485.858, 295.356 488, 287.995 488 C 270.710 488, 251.047 491.817, 234.053 498.472 C 227.514 501.032, 223.721 501.994, 221.732 501.596 L 218.859 501.022 219.266 622.261 C 219.654 738.148, 219.767 744.340, 221.817 762.537 C 228.176 818.992, 239.602 856.384, 259.738 886.642 L 265.355 895.082 444.427 894.749 C 640.277 894.384, 632.001 894.622, 662.500 888.489 C 718.956 877.136, 762.248 850.376, 787.198 811.409 C 809.275 776.930, 815.175 728.962, 802.965 683.209 C 791.432 639.997, 766.386 602.972, 730.375 575.906 L 720.834 568.735 710.167 571.324 C 695.808 574.809, 686.109 576.001, 672.178 575.994 C 653.074 575.984, 632.868 572.194, 615.876 565.432 C 611.133 563.544, 606.979 562, 606.645 562 C 606.311 562, 603.099 566.529, 599.507 572.064 L 592.977 582.127 593.954 588.196 C 594.492 591.534, 595.059 594.360, 595.216 594.476 C 595.372 594.592, 597.975 595.461, 601 596.407 C 604.025 597.354, 612.800 601.220, 620.500 605 C 637.183 613.190, 647.496 616.708, 658.394 617.927 C 665.854 618.762, 666.699 619.095, 669.728 622.400 C 674.382 627.479, 674.337 632.863, 669.600 637.600 C 666.393 640.807, 665.811 641, 659.350 640.993 C 652.361 640.986, 639.790 638.435, 631.894 635.422 C 629.477 634.500, 620.075 630.255, 611 625.989 C 592.745 617.408, 588.178 616, 578.595 616 C 569.865 616, 562.575 618.816, 557.265 624.240 C 551.678 629.947, 549.995 634.358, 550.024 643.218 C 550.066 656.215, 554.779 664.811, 570.482 680.528 C 585.371 695.431, 601.655 705.428, 625 713.998 C 636.026 718.045, 637.682 719.206, 639.079 723.868 C 641.330 731.382, 636.168 738.986, 628.810 738.996 C 625.631 739.001, 615.038 735.289, 602.500 729.777 C 583.050 721.227, 562.979 707.307, 550.369 693.623 L 543.360 686.016 527.637 711.421 C 506.150 746.137, 502.402 749.366, 483.500 749.454 C 474.334 749.496, 472.958 749.242, 467 746.403 C 457.881 742.057, 450.771 735.312, 446.794 727.232 C 443.904 721.363, 443.525 719.634, 443.513 712.287 C 443.503 706.141, 443.181 704.102, 442.273 704.449 C 433.781 707.703, 396.534 707.504, 379.873 704.116 C 364.458 700.981, 340.602 693.522, 336.954 690.697 C 331.698 686.627, 330.634 680.329, 334.284 674.898 C 338.293 668.932, 341.622 668.860, 358.771 674.368 C 379.800 681.124, 389.869 683.024, 408 683.659 C 431.905 684.496, 451.781 680.315, 471 670.405 C 498.197 656.382, 506.339 633.031, 489.270 618.006 C 481.456 611.128, 475.778 609.993, 449.657 610.088 C 420.909 610.192, 408.700 607.890, 391 599.032 C 378.103 592.578, 374.727 587.949, 377.306 580.255 C 379.962 572.330, 387.923 570.510, 396.592 575.844 C 399.378 577.558, 404.720 580.113, 408.463 581.522 C 421 586.241, 427.733 587.106, 454 587.371 C 481.459 587.648, 485.713 588.442, 497.371 595.464 C 500.600 597.409, 503.545 599, 503.915 599 C 504.286 599, 509.400 591.402, 515.281 582.115 C 528.857 560.678, 534.086 555.966, 546.217 554.242 L 551.500 553.491 558.138 543.496 L 564.775 533.500 560.558 529 C 544.541 511.907, 533.446 493.546, 526.508 472.651 C 521.316 457.015, 519.933 448.994, 519.324 431 C 518.855 417.117, 519.093 412.597, 520.825 402.500 C 526.291 370.634, 539.447 345.466, 562.945 321.919 C 589.695 295.114, 622.851 279.589, 658.500 277.177 L 668.500 276.500 659.713 271.160 C 649.436 264.916, 624.580 252.844, 611 247.503 C 543.804 221.072, 455.402 209.400, 392 218.587 C 360.843 223.101, 333.491 233.382, 309.905 249.445 C 300.736 255.689, 298.528 256.510, 293.219 255.648 C 288.795 254.930, 285.303 252.486, 282.161 247.908 C 280.239 245.108, 279.898 243.556, 280.247 239.209 C 280.497 236.089, 281.484 232.806, 282.652 231.209 C 287.571 224.480, 321.045 205.122, 337.750 199.346 C 344.024 197.177, 343.978 197.462, 340.556 181.733 C 330.145 133.883, 311.307 98.909, 284 76.734 C 274.311 68.867, 258.887 60.851, 249 58.545 C 240.865 56.648, 224.296 56.662, 217 58.571 M 579.500 107.041 C 549.100 111.764, 523.516 128.450, 508.869 153.104 C 504.634 160.232, 497.018 180.538, 497.006 184.731 C 496.999 187.288, 496.706 187.200, 513 189.526 C 528.140 191.688, 557.086 197.399, 569 200.576 C 594.639 207.412, 632.193 220.936, 648.170 229.087 L 652.225 231.155 655.110 227.828 C 660.266 221.880, 667.138 210.180, 669.552 203.239 C 676.270 183.920, 675.093 165.304, 665.938 146.079 C 662.659 139.192, 660.340 136.075, 653.214 128.976 C 645.971 121.760, 642.896 119.509, 635 115.637 C 629.775 113.076, 621.900 110.053, 617.500 108.919 C 608.290 106.546, 588.864 105.586, 579.500 107.041 M 655.500 299.019 C 637.936 301.273, 619.039 307.753, 604.500 316.509 C 570.222 337.150, 548.702 368.447, 542.384 406.844 C 540.119 420.609, 540.998 441.995, 544.384 455.500 C 556.422 503.521, 592.287 538.517, 642.404 551.144 C 654.260 554.131, 680.266 554.836, 694.159 552.548 C 721.670 548.017, 745.538 535.572, 766.063 515.058 C 790.635 490.498, 803 460.852, 803 426.500 C 803 392.272, 790.310 361.566, 766 336.970 C 747.474 318.226, 723.713 305.522, 697.727 300.468 C 687.860 298.549, 665.217 297.772, 655.500 299.019 M 662 315.639 C 660.625 315.841, 656.125 316.502, 652 317.108 C 608.405 323.509, 571.698 357.561, 560.818 401.693 C 557.848 413.743, 557.621 437.735, 560.367 449.500 C 572.511 501.534, 617.961 537, 672.500 537 C 691.205 537, 707.310 533.354, 723.084 525.548 C 736.135 519.089, 743.536 513.676, 754.500 502.568 C 770.670 486.185, 779.691 469.163, 784.182 446.557 C 786.968 432.530, 786.266 411.718, 782.544 398 C 772.166 359.759, 741.465 329.536, 702.500 319.203 C 689.486 315.752, 671.820 314.198, 662 315.639 M 656.585 326.040 C 623.312 331.267, 593.240 352.563, 578.975 381 C 563.263 412.323, 564.596 448.004, 582.608 478.180 C 588.632 488.273, 602.689 502.822, 612.828 509.460 C 627.881 519.315, 644.873 525.191, 663.378 526.941 C 678.289 528.352, 682.242 527.476, 699 519.049 C 716.801 510.099, 727.044 503.065, 737.579 492.558 C 758.646 471.546, 770.075 442.652, 769.965 410.678 C 769.894 390.055, 766.126 378.831, 754.318 364.072 C 740.175 346.397, 721.191 334.305, 698.242 328.355 C 687.300 325.519, 667.064 324.394, 656.585 326.040 M 673.547 331.362 C 667.978 336.931, 672.281 344, 681.240 344 C 690.264 344, 706.249 350.495, 716.716 358.415 C 727.373 366.479, 736.682 380.199, 740.521 393.500 C 743.417 403.533, 744.065 404.784, 746.995 405.998 C 749.907 407.204, 753.533 406.149, 755.235 403.600 C 757.653 399.979, 753.919 385.347, 747.423 372.985 C 735.184 349.695, 709.642 332.650, 682.297 329.524 C 676.514 328.863, 675.922 328.987, 673.547 331.362 M 346.500 379.657 C 335.540 385.416, 328.989 399.191, 329.012 416.432 C 329.031 431.235, 333.011 442.199, 340.880 449.126 C 358.942 465.024, 381 447.057, 381 416.446 C 381 399.268, 374.484 385.348, 363.918 379.958 C 359.235 377.569, 350.752 377.422, 346.500 379.657 M 589.491 379.810 C 581.742 383.437, 575.108 393.737, 572.878 405.606 C 571.334 413.822, 572.341 428.214, 574.945 435.145 C 580.446 449.792, 591.292 457.209, 602.732 454.149 C 616.252 450.533, 624.516 435.939, 624.334 416 C 624.192 400.481, 618.979 388.200, 609.704 381.533 C 604.367 377.696, 595.605 376.950, 589.491 379.810 M 746.550 421.945 C 745.545 423.056, 744.181 427.400, 743.369 432.080 C 741.802 441.106, 742.625 444.111, 747.046 445.514 C 753.305 447.501, 756.712 442.821, 757.715 430.856 C 758.197 425.107, 757.997 423.654, 756.491 421.990 C 754.143 419.395, 748.879 419.371, 746.550 421.945 M 457.364 433.170 C 454.944 434.341, 453 437.994, 453 441.369 C 453 449.751, 445.096 460, 438.632 460 C 434.510 460, 430.700 457.153, 428.974 452.784 C 426.817 447.325, 424.106 445, 419.898 445 C 417.035 445, 415.654 445.625, 414.073 447.635 C 411.418 451.010, 411.473 453.330, 414.355 459.500 C 417.648 466.552, 421.245 470.445, 427.220 473.422 C 437.074 478.333, 448.990 476.278, 457.247 468.246 L 460.993 464.601 464.247 467.713 C 471.534 474.684, 482.431 477.577, 491.852 475.040 C 500.018 472.841, 509.962 460.652, 509.990 452.806 C 510.005 448.818, 506.006 444.667, 502.150 444.667 C 498.335 444.667, 494.363 448.070, 493.478 452.099 C 493.134 453.665, 491.446 456.130, 489.725 457.578 C 481.842 464.211, 471.274 456.083, 469.398 441.944 C 468.295 433.629, 463.554 430.172, 457.364 433.170 M 687 433.628 C 670.494 435.087, 644.385 441.164, 636.005 445.497 C 630.616 448.284, 629.949 456.297, 634.886 458.939 C 637.889 460.546, 640.947 460.239, 648.906 457.532 C 664.259 452.310, 678.502 449.798, 695.941 449.237 C 711.422 448.739, 712.518 448.573, 714.691 446.400 C 717.638 443.453, 717.629 439.843, 714.667 436.399 C 712.436 433.806, 711.875 433.677, 701.917 433.458 C 696.188 433.333, 689.475 433.409, 687 433.628 M 636.315 472.944 C 631.611 474.976, 630.484 482.228, 634.314 485.826 C 636.064 487.469, 637.869 488, 641.708 488 C 650.311 488, 666.574 489.973, 674.338 491.958 C 678.401 492.998, 686.574 495.675, 692.501 497.908 C 703.979 502.234, 706.931 502.365, 709.523 498.663 C 712.007 495.118, 711.393 490.508, 708.064 487.708 C 704.340 484.574, 680.234 476.611, 668.403 474.606 C 656.896 472.656, 639.114 471.735, 636.315 472.944 M 572.197 551.143 C 569.830 555.039, 568.030 558.330, 568.197 558.456 C 568.363 558.582, 571.731 560.751, 575.680 563.277 L 582.859 567.868 586.930 561.376 C 589.168 557.806, 591 554.534, 591 554.105 C 591 553.347, 577.958 543.970, 576.987 544.030 C 576.719 544.046, 574.563 547.247, 572.197 551.143 M 546.334 576.231 C 543.394 577.953, 541.924 580.004, 530.312 598.572 C 516.713 620.317, 517.654 618.096, 519.463 624.186 C 521.647 631.542, 521.434 643.384, 518.973 651.351 C 516.796 658.401, 509.238 670.529, 503.829 675.654 C 498.185 681, 485.814 689.350, 478.868 692.500 C 473.237 695.054, 471.714 696.330, 468.627 701.080 C 462.587 710.372, 463.858 718.987, 472.154 724.997 C 477.133 728.604, 481.966 729.627, 486.959 728.130 C 493.342 726.218, 492.770 727.013, 523.115 677.927 L 530.888 665.355 529.282 660.927 C 527.242 655.304, 526.433 637.869, 527.896 631.049 C 530.779 617.606, 540.950 604.599, 553.368 598.476 C 557.291 596.541, 563.313 594.438, 566.750 593.803 C 571.590 592.908, 573 592.253, 573 590.900 C 573 588.153, 568.670 583.698, 561.994 579.577 C 555.301 575.446, 549.712 574.252, 546.334 576.231 M 108.276 655.511 C 75.809 662.566, 51.821 704.698, 54.353 750.219 C 56.914 796.250, 80.424 837.446, 118.762 863.082 C 137.815 875.823, 159.909 885.196, 183.117 890.385 C 196.534 893.385, 217.480 896.239, 222.898 895.806 L 226.721 895.500 222.573 888 C 213.611 871.795, 204.725 848.213, 199.826 827.634 L 197.501 817.870 187.771 812.782 C 160.135 798.330, 139.492 773.160, 132.425 745.302 C 127.554 726.099, 128.192 709.120, 134.546 688.854 C 136.446 682.794, 137.990 676.186, 137.978 674.168 C 137.926 665.422, 130.880 656.998, 122.030 655.100 C 115.957 653.797, 116.198 653.790, 108.276 655.511" stroke="none" fill="currentColor" fill-rule="evenodd"/>
</svg>